<mxfile host="app.diagrams.net" agent="Mozilla/5.0 (Macintosh; Intel Mac OS X 10_15_7) AppleWebKit/537.36 (KHTML, like Gecko) Chrome/136.0.0.0 Safari/537.36" version="27.1.6">
  <diagram name="Page-1" id="yQr8q2VmMqQCvdsopH6Q">
    <mxGraphModel dx="1018" dy="689" grid="1" gridSize="10" guides="1" tooltips="1" connect="1" arrows="1" fold="1" page="1" pageScale="1" pageWidth="1100" pageHeight="850" math="0" shadow="0">
      <root>
        <mxCell id="0" />
        <mxCell id="1" parent="0" />
        <mxCell id="lX_gjA4-c5jMj5qpraQo-8" value="" style="rounded=0;whiteSpace=wrap;html=1;strokeColor=none;" vertex="1" parent="1">
          <mxGeometry x="70" y="180" width="610" height="120" as="geometry" />
        </mxCell>
        <mxCell id="lX_gjA4-c5jMj5qpraQo-3" value="" style="edgeStyle=orthogonalEdgeStyle;rounded=0;orthogonalLoop=1;jettySize=auto;html=1;" edge="1" parent="1" source="lX_gjA4-c5jMj5qpraQo-1" target="lX_gjA4-c5jMj5qpraQo-2">
          <mxGeometry relative="1" as="geometry" />
        </mxCell>
        <mxCell id="lX_gjA4-c5jMj5qpraQo-7" value="Emits events" style="edgeLabel;html=1;align=center;verticalAlign=middle;resizable=0;points=[];" vertex="1" connectable="0" parent="lX_gjA4-c5jMj5qpraQo-3">
          <mxGeometry x="-0.025" relative="1" as="geometry">
            <mxPoint y="8" as="offset" />
          </mxGeometry>
        </mxCell>
        <mxCell id="lX_gjA4-c5jMj5qpraQo-1" value="Workflow Engine" style="rounded=0;whiteSpace=wrap;html=1;strokeWidth=2;" vertex="1" parent="1">
          <mxGeometry x="100" y="210" width="120" height="60" as="geometry" />
        </mxCell>
        <mxCell id="lX_gjA4-c5jMj5qpraQo-2" value="Data-Index" style="whiteSpace=wrap;html=1;rounded=0;strokeWidth=2;" vertex="1" parent="1">
          <mxGeometry x="320" y="210" width="120" height="60" as="geometry" />
        </mxCell>
        <mxCell id="lX_gjA4-c5jMj5qpraQo-5" value="&lt;br&gt;Storage" style="strokeWidth=2;html=1;shape=mxgraph.flowchart.database;whiteSpace=wrap;" vertex="1" parent="1">
          <mxGeometry x="590" y="210" width="60" height="60" as="geometry" />
        </mxCell>
        <mxCell id="lX_gjA4-c5jMj5qpraQo-6" style="edgeStyle=orthogonalEdgeStyle;rounded=0;orthogonalLoop=1;jettySize=auto;html=1;entryX=0;entryY=0.5;entryDx=0;entryDy=0;entryPerimeter=0;" edge="1" parent="1" source="lX_gjA4-c5jMj5qpraQo-2" target="lX_gjA4-c5jMj5qpraQo-5">
          <mxGeometry relative="1" as="geometry" />
        </mxCell>
        <mxCell id="lX_gjA4-c5jMj5qpraQo-9" value="Persists operational&lt;br&gt;data to" style="edgeLabel;html=1;align=center;verticalAlign=middle;resizable=0;points=[];labelBackgroundColor=none;" vertex="1" connectable="0" parent="lX_gjA4-c5jMj5qpraQo-6">
          <mxGeometry x="0.075" y="1" relative="1" as="geometry">
            <mxPoint x="-11" y="16" as="offset" />
          </mxGeometry>
        </mxCell>
      </root>
    </mxGraphModel>
  </diagram>
</mxfile>
